<?xml version="1.0" encoding="UTF-8"?>
<svg xmlns="http://www.w3.org/2000/svg" width="171" height="156" viewBox="0 0 171 156" fill="none">
  <g id="logo">
    <g id="Group">
      <g id="Group_2">
        <g id="Group_3">
          <g id="Group_4">
            <path id="Vector" d="M83.26 144.52C82.27 144.99 81.44 145.2 80.52 145.2C78.32 145.2 77.29 143.66 77.29 141.33C77.29 139.1 78.4 137.59 80.69 137.59C81.81 137.59 82.53 137.86 83.1 138.24L82.49 139.32C82.08 139.05 81.46 138.85 80.7 138.85C79.39 138.85 78.79 139.85 78.79 141.31C78.79 143.04 79.42 143.98 80.66 143.98C81.14 143.98 81.59 143.88 81.94 143.72V142.37H80.93L80.85 141.31H83.25V144.52H83.26Z" fill="white"></path>
            <path id="Vector_2" d="M89.2002 142.42C89.2002 144.23 88.2802 145.2 86.7002 145.2C85.1002 145.2 84.2002 144.24 84.2002 142.42C84.2002 140.85 85.0702 139.66 86.7002 139.66C88.3102 139.65 89.2002 140.85 89.2002 142.42ZM87.7402 142.42C87.7402 141.14 87.3602 140.69 86.7002 140.69C86.0402 140.69 85.6702 141.15 85.6702 142.42C85.6702 143.66 86.0102 144.16 86.7002 144.16C87.4002 144.15 87.7402 143.69 87.7402 142.42Z" fill="white"></path>
            <path id="Vector_3" d="M91.58 140.31C91.82 139.99 92.39 139.66 92.99 139.66C94.24 139.66 95.14 140.55 95.14 142.42C95.14 144.26 94.05 145.2 92.81 145.2C92.05 145.2 91.61 144.91 91.27 144.45L91.01 145.09H90.25V137.59H91.67V139.45L91.58 140.31ZM91.68 143.61C91.9 143.9 92.27 144.15 92.65 144.15C93.27 144.15 93.73 143.7 93.73 142.41C93.73 141.14 93.33 140.69 92.68 140.69C92.32 140.69 91.93 140.88 91.69 141.11V143.61H91.68Z" fill="white"></path>
            <path id="Vector_4" d="M96.6598 145.09V140.81L96.0498 140.68V139.77H98.0698V145.09H96.6598ZM96.6198 137.59H98.0598V138.88H96.6198V137.59Z" fill="white"></path>
            <path id="Vector_5" d="M100.58 142.81C100.58 143.66 101.06 144.12 101.95 144.12C102.5 144.12 103.04 143.89 103.5 143.66L103.77 144.66C103.33 144.9 102.62 145.19 101.77 145.19C100.11 145.19 99.1401 144.17 99.1401 142.41C99.1401 140.77 99.9201 139.65 101.63 139.65C103.24 139.65 103.88 140.84 103.88 142.18V142.8H100.58V142.81ZM101.57 140.7C100.87 140.7 100.58 141.34 100.58 141.97H102.53C102.53 141.29 102.31 140.7 101.57 140.7Z" fill="white"></path>
            <path id="Vector_6" d="M107.99 140.95C107.82 140.9 107.58 140.86 107.33 140.86C106.95 140.86 106.61 141.02 106.37 141.22V145.09H104.96V139.77H105.95C106 140.02 106.06 140.25 106.1 140.49H106.14C106.3 140.11 106.78 139.68 107.41 139.68C107.7 139.68 107.9 139.72 108.02 139.76C108.01 140.14 108.01 140.55 107.99 140.95Z" fill="white"></path>
            <path id="Vector_7" d="M112.15 145.09V141.93C112.15 141.13 111.84 140.75 111.19 140.75C110.82 140.75 110.5 140.91 110.25 141.08V145.1H108.83V139.78H109.81L110.03 140.39C110.33 140.03 110.92 139.67 111.72 139.67C113.07 139.67 113.6 140.46 113.6 141.81V145.1H112.15V145.09Z" fill="white"></path>
            <path id="Vector_8" d="M119.55 142.42C119.55 144.23 118.64 145.2 117.05 145.2C115.46 145.2 114.55 144.24 114.55 142.42C114.55 140.85 115.42 139.66 117.05 139.66C118.66 139.65 119.55 140.85 119.55 142.42ZM118.09 142.42C118.09 141.14 117.71 140.69 117.04 140.69C116.38 140.69 116.01 141.15 116.01 142.42C116.01 143.66 116.35 144.16 117.04 144.16C117.74 144.15 118.09 143.69 118.09 142.42Z" fill="white"></path>
            <path id="Vector_9" d="M126.45 140.18C126.36 139.87 126.32 139.6 126.32 139.2V137.59H127.74V145.09H126.59L126.43 144.5C126.21 144.82 125.7 145.2 125.02 145.2C123.81 145.2 122.85 144.33 122.85 142.43C122.85 140.67 123.85 139.66 125.14 139.66C125.7 139.65 126.16 139.85 126.45 140.18ZM126.32 140.98C126.1 140.85 125.77 140.72 125.35 140.72C124.68 140.72 124.25 141.18 124.25 142.42C124.25 143.69 124.65 144.17 125.33 144.17C125.69 144.17 126.05 144 126.32 143.71V140.98Z" fill="white"></path>
            <path id="Vector_10" d="M130.25 142.81C130.25 143.66 130.73 144.12 131.62 144.12C132.17 144.12 132.71 143.89 133.18 143.66L133.45 144.66C133 144.9 132.3 145.19 131.45 145.19C129.79 145.19 128.82 144.17 128.82 142.41C128.82 140.77 129.6 139.65 131.31 139.65C132.92 139.65 133.56 140.84 133.56 142.18V142.8H130.25V142.81ZM131.23 140.7C130.52 140.7 130.24 141.34 130.24 141.97H132.18C132.19 141.29 131.97 140.7 131.23 140.7Z" fill="white"></path>
            <path id="Vector_11" d="M140.02 145.2C137.95 145.2 136.86 143.81 136.86 141.36C136.86 139.11 137.95 137.59 140.02 137.59C141.02 137.59 141.92 137.81 142.52 138.21L141.98 139.34C141.6 139.06 140.94 138.84 140.18 138.84C138.96 138.84 138.36 139.74 138.36 141.35C138.36 143.05 138.97 143.95 140.16 143.95C140.88 143.95 141.6 143.65 142.1 143.28L142.55 144.42C141.81 144.92 140.99 145.2 140.02 145.2Z" fill="white"></path>
            <path id="Vector_12" d="M143.52 145.09V137.59H144.94V139.56C144.94 139.93 144.82 140.3 144.8 140.38C145.1 140.01 145.55 139.65 146.31 139.65C147.85 139.65 148.28 140.44 148.28 141.79V145.08H146.84V141.92C146.84 141.78 146.82 141.67 146.76 141.6C146.72 141 146.41 140.74 145.88 140.74C145.51 140.74 145.19 140.9 144.94 141.07V145.09H143.52Z" fill="white"></path>
            <path id="Vector_13" d="M149.87 145.09V140.81L149.26 140.68V139.77H151.28V145.09H149.87ZM149.83 137.59H151.27V138.88H149.83V137.59Z" fill="white"></path>
            <path id="Vector_14" d="M152.58 143.68V137.59H153.98V143.6C153.98 144.05 154.25 144.11 154.84 144.11V145.11C154.84 145.11 154.43 145.2 154.06 145.2C152.97 145.2 152.58 144.62 152.58 143.68Z" fill="white"></path>
            <path id="Vector_15" d="M156.99 142.81C156.99 143.66 157.47 144.12 158.36 144.12C158.91 144.12 159.45 143.89 159.91 143.66L160.18 144.66C159.73 144.9 159.03 145.19 158.18 145.19C156.52 145.19 155.55 144.17 155.55 142.41C155.55 140.77 156.33 139.65 158.04 139.65C159.65 139.65 160.29 140.84 160.29 142.18V142.8H156.99V142.81ZM157.98 140.7C157.27 140.7 156.99 141.34 156.99 141.97H158.93C158.94 141.29 158.72 140.7 157.98 140.7Z" fill="white"></path>
            <path id="Vector_16" d="M167.71 0H2.65H0V2.65V152.74V155.39H2.65H167.71H170.36V152.74V2.65V0H167.71ZM2.65 2.65H68.95V152.74H2.65V2.65ZM167.71 152.74H71.6V2.65H167.72L167.71 152.74Z" fill="white"></path>
          </g>
          <g id="Group_5">
            <g id="Group_6">
              <g id="Group_7">
                <path id="Vector_17" d="M38.31 23.07C38.46 22.95 38.78 22.67 38.52 22.16C38.4 21.92 38.08 21.9001 38.22 21.8701C39.94 21.4701 40.85 18.96 40.8 18C41.68 18.8101 43.66 19.05 45.1 17.83C46.03 16.9401 46.47 14.59 44.89 13.41C44.08 12.81 42.64 12.76 41.74 13.45C41.46 12.97 40.96 12.63 40.43 12.63C40.42 12.46 40.45 11.3301 39.78 10.6001C38.92 9.67005 36.51 9.59005 35.64 10.62C33.91 10.19 31.66 10.98 31.78 13.7C30.56 13.22 29.87 13.2101 29.22 13.2701C28.61 13.3301 27.81 13.87 27.53 14.24C27.4 14.41 27.26 14.6401 27.15 14.8401C26.95 15.2301 26.8 15.74 26.86 16.31C26.95 17.28 27.43 18.09 28.13 18.47C29.1 19 30.32 18.93 30.76 18.8601C31.1 18.7901 31.46 18.6601 31.84 18.2701C31.95 18.1601 32.03 17.97 32.2 17.97C32.2 18.21 32.11 19.52 33.56 20.13C33.57 20.19 33.59 20.25 33.6 20.35C34.06 22.14 35.26 21.9201 35.28 22.0401C34.75 22.3601 34.97 22.83 35.1 23.08C35.91 22.83 36.52 22.8 36.71 22.8C36.89 22.78 37.49 22.82 38.31 23.07Z" fill="white"></path>
                <g id="Group_8">
                  <path id="Vector_18" d="M42.3803 28.4701C42.3703 26.6801 43.5903 25.2901 43.6003 25.2701C43.7303 25.1201 43.7503 24.9801 43.7403 24.8801C43.7203 24.7101 43.5903 24.6001 43.5603 24.6001C43.2103 24.3701 42.4403 23.8901 42.4403 23.8901L42.3803 23.8401H42.3103C42.2303 23.8401 42.1603 23.8901 42.0603 23.9701C41.8403 24.1401 41.4503 24.4401 40.7503 24.4401C40.6303 24.4401 40.5003 24.4301 40.3703 24.4101C40.0103 24.3601 39.3903 24.0501 39.3903 24.0501C39.1903 23.9501 38.9403 23.8401 38.8403 23.7901L38.8003 23.7701C37.8003 23.3501 36.9503 23.3201 36.7103 23.3201C36.4703 23.3201 35.6203 23.3501 34.6203 23.7701L34.5703 23.7901C34.5203 23.8101 34.4303 23.8601 34.3203 23.9001L33.7103 24.1901C33.5103 24.2801 33.2403 24.3801 33.0403 24.4101C32.9103 24.4301 32.7803 24.4401 32.6603 24.4401C31.9603 24.4401 31.5603 24.1301 31.3503 23.9701C31.2403 23.8901 31.1803 23.8401 31.1003 23.8401L31.0403 23.8501L31.0003 23.8701C31.0003 23.8701 30.2003 24.3601 29.8703 24.5901C29.8203 24.6101 29.6903 24.7201 29.6703 24.8901C29.6603 24.9801 29.6703 25.1201 29.8103 25.2701C29.8603 25.3301 31.0303 26.6901 31.0303 28.5001C31.0603 28.7001 31.1503 29.7901 30.2303 31.3801C30.1903 31.4601 29.1703 33.3101 30.2803 34.9401C30.2803 34.9601 31.1103 36.4701 33.5403 36.4701C33.7403 36.4701 35.5303 36.5001 36.1403 37.6501C36.1703 37.7001 36.4503 38.1501 36.5703 38.3801L36.7103 38.6501L36.8503 38.3801C36.9703 38.1601 37.2503 37.7001 37.2903 37.6401C37.9003 36.5101 39.6903 36.4701 39.8803 36.4701C42.2703 36.4701 43.1203 34.9601 43.1203 34.9601C44.2603 33.2901 43.1903 31.3901 43.1903 31.3801C42.2603 29.7801 42.3503 28.7001 42.3803 28.4701ZM41.4403 28.4501L38.3103 30.6901L39.5103 34.2301L36.5103 31.9501L33.5103 34.2301L34.7103 30.6901L31.5803 28.4501H31.5703H35.4303L36.5103 24.8701L37.5903 28.4501H41.4403Z" fill="white"></path>
                  <g id="Group_9">
                    <path id="Vector_19" d="M63.3102 43.3301C62.9202 42.8501 61.8802 43.0901 61.8802 43.0901C62.4402 41.4301 60.9002 40.9801 60.9002 40.9801C60.3502 40.8301 59.9902 40.9401 59.7502 41.1001C59.7502 41.1001 59.7402 41.1101 59.7302 41.1101L59.7202 41.1201C59.6802 41.1501 59.6402 41.1701 59.6102 41.2101C59.4702 41.3601 59.3902 41.5501 59.3902 41.7601C59.3902 42.2001 59.7502 42.5601 60.1902 42.5601C60.3602 42.5601 60.5202 42.5101 60.6502 42.4201C60.8102 42.3101 60.9202 42.1401 60.9702 41.9501C61.1902 42.0901 61.2602 42.3201 61.2602 42.3201C61.7102 43.7401 60.1102 44.2501 60.1102 44.2501C56.5902 45.3101 54.4402 43.4901 54.4402 43.4901L55.0602 43.1601C55.2702 43.0701 55.4702 43.0401 55.6202 43.0401C55.6102 43.0701 55.6102 43.1101 55.6102 43.1401C55.6102 43.5201 55.9302 43.8301 56.3102 43.8301C56.6902 43.8301 57.0102 43.5201 57.0102 43.1401C57.0102 42.8501 56.8702 42.7101 56.8702 42.7101C56.4602 42.0901 55.0402 42.5001 55.0402 42.5001C55.5102 41.3301 55.0902 40.4901 55.0902 40.4901C54.4302 39.1401 52.8802 39.5601 52.8802 39.5601C52.3402 39.7201 52.2302 40.2101 52.2302 40.2101C52.0202 41.2801 52.9002 41.3701 52.9002 41.3701C53.5402 41.4001 53.5402 40.8901 53.5402 40.8901C53.6202 40.3901 52.9202 40.3701 52.9202 40.3701C53.5102 39.3301 55.3902 41.0401 54.1602 42.5501C54.0302 42.7001 53.9202 42.6001 53.9202 42.6001C51.7302 41.5101 50.6402 40.8101 50.1102 40.4001C50.0602 39.8001 49.5402 39.5001 49.6402 39.3401C49.7302 39.3001 50.0402 39.4601 50.2102 39.2001C50.2702 39.1101 50.4202 38.1601 50.5302 37.4901C52.4702 38.3801 54.1302 38.1101 54.4602 38.0001C54.6302 37.9301 54.7702 37.8101 54.7702 37.5501C54.8002 36.8101 52.8902 32.4701 52.8302 30.9301C53.7302 31.3801 54.2902 29.9801 54.4602 29.5601C55.6802 30.1101 56.0902 41.3901 57.0302 41.7701C57.5002 41.9601 57.6802 41.1901 57.7302 41.0501C59.2302 36.0201 59.2902 31.1301 59.1902 29.4901C59.0402 26.9201 58.8302 24.6201 58.2102 22.5001C57.8302 21.2001 57.0902 18.5401 55.3702 18.1701C54.5602 18.0001 53.9502 18.7501 53.9702 19.4201C53.9802 20.0001 54.3902 20.2901 54.2102 20.8601C54.0002 21.2301 53.7802 21.6401 53.6702 22.0601C53.5702 22.4801 53.9402 22.6501 53.8202 23.1001C53.2802 23.0201 53.0002 23.5001 52.1502 23.2801C52.7102 23.0201 52.7202 21.4301 52.0302 21.1601C51.9302 21.1201 51.8102 21.1001 51.7902 21.0101C51.7902 21.0101 52.0102 20.7801 52.1202 20.5501C52.5102 19.7501 52.5102 19.0401 52.2002 18.5001C52.4802 18.5201 52.7802 18.0001 52.8202 17.5901H52.8302C52.8302 17.5901 52.8302 17.5701 52.8302 17.5601C52.8402 17.4501 52.8202 17.0901 52.9802 16.7501C53.0302 16.6401 52.9802 16.5101 52.8902 16.4601C52.7902 16.4101 52.6602 16.4601 52.6102 16.5701C52.4402 16.9301 52.0402 16.7301 52.2102 16.3701C52.2602 16.2601 52.2102 16.1301 52.1102 16.0801C52.0202 16.0401 51.8902 16.0701 51.8302 16.1801C51.6702 16.5201 51.2802 16.3301 51.4402 15.9901C51.4902 15.8801 51.4402 15.7501 51.3502 15.7101C51.2602 15.6701 51.1302 15.7001 51.0702 15.8201C50.9002 16.1701 50.5002 15.9801 50.6702 15.6301C50.7202 15.5101 50.6702 15.3901 50.5802 15.3401C50.4902 15.3001 50.3602 15.3301 50.3002 15.4501C50.1202 15.8201 50.0002 15.9801 49.8102 16.1301C49.4302 16.2001 49.5302 16.6301 49.5802 16.9301C48.8702 16.7801 48.3302 17.3201 48.3102 17.8001H48.2302C47.6402 17.8101 47.0802 18.1201 47.1202 18.6601C47.1402 18.9701 47.5002 19.3501 47.6402 19.3601C47.7002 19.3401 47.6102 19.0301 47.9102 19.0101C48.1902 18.9901 48.6002 19.2301 48.6502 19.5001C48.7102 19.8001 48.4602 20.5301 49.4202 20.6401C49.4202 20.6401 49.4102 20.7901 49.4002 20.9401C49.0602 20.9201 48.9702 20.9001 48.6202 20.9501C48.0102 21.0501 47.1802 21.3901 46.9802 21.9901C46.9402 22.0901 46.9202 22.3001 46.9402 22.4501C46.9502 22.5701 47.0702 22.7301 47.0502 22.8801C47.0402 22.9501 46.9102 23.1101 46.8602 23.1501C46.6102 23.4201 46.1402 23.6701 45.7202 23.6901C45.2602 23.7101 44.8102 23.4201 44.6402 23.1701C44.0302 22.3501 44.8202 20.9301 44.8102 20.4001C44.7702 18.9901 43.0002 19.8301 42.2902 20.2001C41.4502 20.6401 40.7802 21.3501 40.2202 22.0501C39.9102 22.4301 39.5602 22.9101 39.3902 23.3201C39.3602 23.3901 39.2902 23.4101 39.2202 23.4101C39.5802 23.5701 40.2202 23.8101 40.7202 23.8201C40.7202 23.8201 41.7002 23.9501 42.4102 23.3701C42.4102 23.3701 42.5102 23.2801 42.6502 23.2801C42.7502 23.2801 42.8402 23.3201 42.9202 23.3901C42.9302 23.4001 43.0202 23.4701 43.1202 23.5601C43.1802 23.6101 43.2602 23.6701 43.3402 23.7401C43.3802 23.7701 43.4202 23.8101 43.4702 23.8401C43.5902 23.9301 43.7102 24.0301 43.8402 24.1301C43.8602 24.1501 43.8902 24.1701 43.9102 24.1801C44.0502 24.2901 44.1902 24.3901 44.3102 24.4801C44.4502 24.5901 44.5902 24.6901 44.6702 24.7401H44.6402C44.6502 24.7501 44.6902 24.7901 44.7002 24.8401C44.7002 24.8901 44.6802 24.9601 44.6302 25.0101C44.6302 25.0101 44.5502 25.1001 44.4402 25.2401C44.2002 25.5401 43.8102 26.1201 43.5002 26.8401C43.8302 27.4201 44.3902 28.1101 45.1902 28.1201C45.8302 28.1301 46.0902 27.8101 46.1802 27.4001C46.1902 27.4101 46.2302 27.4501 46.2302 27.4501C46.3102 27.3801 46.6602 29.2901 47.1202 29.8001C46.6802 30.0001 46.0102 30.6901 46.3802 32.5701C46.0202 32.2801 45.3602 31.7801 45.0502 31.4601C44.8602 31.0701 44.4902 30.1501 43.4302 30.0601C43.5802 30.5301 43.8102 31.0601 44.1502 31.6501C44.1602 31.6701 44.8102 32.8601 44.6002 34.2201C45.0502 33.7601 44.9802 32.5101 44.9802 32.5101C45.0002 32.4901 45.0602 32.4801 45.0802 32.4701C45.1702 32.4601 45.6202 33.3401 46.3902 33.5201C47.4002 35.2401 48.5302 36.3301 49.6202 37.0201C49.6002 37.4401 49.6502 38.4301 49.3802 38.4301C48.5202 38.6201 47.7302 38.0401 46.9702 38.0801C46.9102 38.0501 46.8402 38.0201 46.8402 38.0201C43.5802 36.4501 39.2802 39.8201 38.5702 40.4701C38.1902 40.8201 37.7602 40.3401 37.7602 40.3401C37.5002 40.0201 37.1702 39.8701 36.8302 39.9101C36.5002 39.8701 36.1602 40.0201 35.9102 40.3401C35.9102 40.3401 35.4702 40.8101 35.0902 40.4701C34.4102 39.8501 30.5202 36.8301 27.3302 37.8601C27.3202 37.6901 26.8902 37.6001 26.7702 37.5501C26.5202 37.4801 26.3002 37.2801 26.1402 37.2001C25.7902 37.0301 25.2302 37.1301 24.8402 37.0901C24.6902 37.0701 24.4702 36.9901 24.3302 36.9001C23.8202 36.5901 23.2402 36.2001 22.9102 35.7401C22.8602 35.6701 22.7302 35.4901 22.7102 35.4601C22.5502 35.2601 22.4702 35.1101 22.3502 34.7901C22.1802 34.1601 22.4502 33.4901 22.5402 32.8501C22.6102 32.3801 22.5902 32.3501 22.6302 31.8401C24.6502 31.1501 25.4802 29.6301 25.9502 28.8201C26.0002 28.7601 26.1202 28.5001 26.1202 28.5001C26.2102 28.5101 26.3002 28.5201 26.4002 28.5201C27.2102 28.5301 27.7502 28.0701 28.6402 28.1801C28.6402 28.2301 28.7602 28.6001 29.3302 28.8401C29.3502 29.4201 29.3902 29.9001 29.6102 30.3501C29.6602 30.4301 29.7202 30.4901 29.7602 30.5601C30.1402 29.6301 30.2402 28.9001 30.2502 28.4601C30.2202 28.4201 30.2002 28.3701 30.1802 28.2901C29.9902 27.3101 29.5302 27.0401 29.1002 26.7901C28.8902 26.6701 28.6502 26.6401 28.4502 26.4901C28.1402 26.2701 27.8002 26.0401 27.5902 25.6401C27.5902 25.6401 27.6902 25.5401 27.8002 25.4001C28.3602 24.8101 28.6502 23.9401 28.8502 22.9901C29.2802 22.4001 30.4802 22.6301 30.9402 22.7101C31.0602 22.7201 31.2602 22.7701 31.3502 22.8401C31.4802 22.9301 31.5102 23.1301 31.6902 23.2101C31.8802 23.2901 32.0902 23.2301 32.3202 23.2101C32.4002 23.3101 32.4502 23.4401 32.5102 23.5601C32.5102 23.5601 32.5702 23.6701 32.6902 23.8001C33.2502 23.7901 34.0002 23.4901 34.3202 23.3301C34.2802 23.3101 34.2502 23.2801 34.2302 23.2601C33.9802 22.9401 33.6002 22.5801 33.2502 22.5301C32.8002 22.4601 32.7102 22.0601 32.2802 21.9701C32.1702 21.9401 31.7902 21.8801 31.6602 21.9301C30.7102 22.0501 30.0402 21.6901 29.1602 21.6301C28.3202 21.5701 28.2902 22.1501 27.9902 22.6201C27.8802 22.8001 27.7402 23.0101 27.6002 23.1401C27.3702 23.3601 27.1002 23.3701 26.8202 23.5901L26.6902 23.2401C26.6102 22.9501 26.5002 22.6501 26.3102 22.3601C25.8502 21.6401 25.3302 21.0901 24.3202 20.8501C24.1302 20.7701 24.1002 20.7601 23.9702 20.6601C23.8002 20.5301 23.9202 20.3801 23.9702 20.3601C24.2602 20.1901 24.7602 20.2501 25.0902 20.1001C25.9002 19.7201 25.6102 19.0401 25.3002 18.9801C24.8902 18.9001 24.1602 18.7101 24.0102 18.6301C23.8102 18.5101 23.4702 17.8901 23.1502 17.7401C22.8002 17.6401 22.9202 17.0601 22.5902 16.9401C22.4502 16.9201 22.2402 16.9901 22.0102 17.1001C22.0002 16.9801 21.9102 16.3201 21.5502 16.1001C21.2802 15.9501 21.1802 16.1901 21.1902 16.3401C21.2102 16.4801 21.5902 16.6701 21.6602 17.3001C21.5902 17.3401 21.5302 17.3801 21.4602 17.4301C21.4102 17.1701 21.2902 16.7801 21.0302 16.6201C20.7602 16.4601 20.6602 16.7101 20.6702 16.8601C20.6802 16.9901 21.0202 17.1701 21.1302 17.7001C21.0502 17.7701 20.9702 17.8301 20.9002 17.9001C20.3602 17.7501 20.2102 17.3801 20.0702 17.3601C19.9202 17.3301 19.6702 17.4001 19.7902 17.6901C19.9202 17.9801 20.3302 18.1301 20.5802 18.2101C20.5202 18.2701 20.4802 18.3301 20.4302 18.3901C19.8002 18.2601 19.6402 17.8501 19.5002 17.8201C19.3502 17.7901 19.0902 17.8701 19.2202 18.1501C19.4002 18.5501 20.1202 18.7101 20.1902 18.7201C20.0902 18.8901 20.0202 19.0501 20.0502 19.1601C19.5602 19.1001 18.6902 19.3701 18.8502 19.9501C19.0102 20.0701 19.5902 19.5901 20.1302 19.8601C20.4802 20.4101 21.0502 20.4301 21.1702 20.5301C21.3702 20.6901 21.4002 20.9701 21.4902 21.2201C21.6502 21.6901 21.9802 22.0701 22.2502 22.4901C22.5502 22.9501 22.8702 23.4301 23.1802 23.8301C23.2202 23.9401 23.2502 24.0501 23.2302 24.2201C22.8702 24.7901 21.7902 25.4601 21.3502 25.8801C20.9002 26.3001 16.6802 29.5201 16.1502 30.9201C16.0302 31.2301 15.9602 31.6401 15.9802 32.0601C15.7202 32.2001 15.1602 32.4201 14.9802 32.1701C14.6502 31.7201 15.2902 31.3701 15.1502 30.9301C15.0802 30.7601 14.8402 30.6501 14.6802 30.7601C13.6302 31.5101 14.1702 32.8501 14.8402 33.1501C15.5702 33.4501 15.6802 32.6701 16.2402 32.9801C16.3702 33.0601 17.7202 34.2501 17.4902 35.2001C17.4802 35.2501 17.4202 35.3901 17.4002 35.4201C17.1102 35.7801 16.6202 36.0701 16.2802 36.4101C15.5802 36.8501 16.9402 39.6301 16.8302 41.0601C16.7502 41.6001 17.2802 41.5401 17.6002 42.3901C17.2702 42.4001 16.9402 42.4801 16.7802 42.7301C16.7802 42.7301 16.6402 42.8701 16.6402 43.1601C16.6402 43.5401 16.9502 43.8501 17.3302 43.8501C17.7102 43.8501 18.0302 43.5401 18.0302 43.1601C18.0302 43.1201 18.0302 43.0801 18.0202 43.0601C18.1702 43.0601 18.3702 43.0901 18.5802 43.1801L19.1902 43.5101C19.1902 43.5101 17.0402 45.3301 13.5202 44.2701C13.5202 44.2701 11.9202 43.7601 12.3702 42.3401C12.3702 42.3401 12.4502 42.1001 12.6702 41.9701C12.7102 42.1601 12.8302 42.3301 12.9902 42.4401C13.1202 42.5301 13.2802 42.5801 13.4502 42.5801C13.8902 42.5801 14.2502 42.2201 14.2502 41.7801C14.2502 41.5701 14.1702 41.3701 14.0302 41.2301C14.0002 41.2001 13.9602 41.1701 13.9202 41.1401C13.9202 41.1301 13.9202 41.1301 13.9202 41.1301C13.9102 41.1201 13.9002 41.1201 13.9002 41.1201C13.6602 40.9601 13.3002 40.8501 12.7502 41.0001C12.7502 41.0001 11.2102 41.4401 11.7702 43.1101C11.7702 43.1101 10.7302 42.8701 10.3402 43.3501C10.3402 43.3501 10.2002 43.5001 10.2202 43.7401V43.7501V43.7601C10.2302 43.8601 10.2602 43.9701 10.3302 44.1001C10.4402 44.2501 10.6202 44.3601 10.8202 44.3601C11.0102 44.3601 11.1802 44.2701 11.2902 44.1401C11.2902 44.1301 11.2902 44.1301 11.2902 44.1301C11.3302 44.0801 11.4602 44.0001 11.6502 44.2001C13.9802 46.6301 17.7902 45.6301 19.9002 44.0001C19.9002 44.0001 21.0702 42.8201 22.3702 42.1001C22.8802 42.3201 23.4202 42.4801 23.9402 42.6701C23.9002 43.4301 24.0602 44.5101 24.9002 45.7701C24.9002 45.7701 24.3102 46.8701 23.3002 46.2701C23.3002 46.2701 22.5602 45.7001 23.1902 45.0101C23.1902 45.0101 23.6102 44.6601 23.7902 45.1001C23.5702 45.1101 23.4002 45.2901 23.4002 45.5101C23.4002 45.7401 23.5802 45.9201 23.8102 45.9201C24.0302 45.9201 24.2102 45.7501 24.2202 45.5401C24.2402 45.3701 24.2502 44.9501 23.8902 44.6501C23.8902 44.6501 23.5702 44.3001 22.9602 44.4001C22.0702 44.5401 21.5702 46.3901 23.3202 47.1601C23.3202 47.1601 24.6902 47.7901 25.4002 46.7601C25.4002 46.7601 25.3902 46.6101 25.6502 46.8701C27.1002 48.2801 30.3502 47.8701 31.6402 46.9101C31.6402 46.9101 31.9702 46.7001 32.3202 46.5301C32.3402 47.0701 32.7802 47.5201 33.3302 47.5201C33.8902 47.5201 34.3402 47.0601 34.3402 46.5001C34.3402 46.0001 33.9802 45.5901 33.5102 45.5001C33.4902 45.4901 32.8402 45.3101 31.9002 45.8801C31.9002 45.8801 30.9002 46.5001 30.9602 46.4101C31.3002 45.8801 31.5002 45.1701 31.6502 44.4101C33.0702 44.5701 34.5202 44.6701 36.0302 44.7001C36.0102 45.1401 35.9502 45.6701 35.7802 46.0801C35.7802 46.0801 35.2502 46.3001 35.2402 46.6701C35.2402 46.6701 35.1802 46.9401 35.6502 47.3201C35.6502 47.3201 35.9902 47.7001 36.0902 48.0001C36.0902 48.0001 36.1202 48.4101 36.6802 48.4101C36.7202 48.4101 36.7602 48.4101 36.7902 48.4001C36.8302 48.4101 36.8602 48.4101 36.9002 48.4101C37.4702 48.4101 37.4902 48.0001 37.4902 48.0001C37.5902 47.7001 37.9302 47.3201 37.9302 47.3201C38.4002 46.9401 38.3402 46.6701 38.3402 46.6701C38.3302 46.3001 37.7902 46.0801 37.7902 46.0801C37.6202 45.6701 37.5602 45.1401 37.5402 44.7001C39.0502 44.6701 40.5002 44.5701 41.9202 44.4101C42.0602 45.1701 42.2702 45.8801 42.6102 46.4101C42.6702 46.5101 41.6702 45.8801 41.6702 45.8801C40.7302 45.3101 40.0802 45.4901 40.0502 45.5001C39.5802 45.5901 39.2202 46.0001 39.2202 46.5001C39.2202 47.0601 39.6702 47.5201 40.2302 47.5201C40.7802 47.5201 41.2302 47.0801 41.2402 46.5301C41.6002 46.7001 41.9302 46.9101 41.9302 46.9101C43.2202 47.8701 46.4702 48.2801 47.9202 46.8701C48.1802 46.6201 48.1702 46.7601 48.1702 46.7601C48.8802 47.7901 50.2602 47.1601 50.2602 47.1601C52.0102 46.3901 51.5002 44.5401 50.6202 44.4001C50.0102 44.3001 49.6902 44.6501 49.6902 44.6501C49.3302 44.9601 49.3402 45.3801 49.3602 45.5401C49.3702 45.7501 49.5502 45.9201 49.7602 45.9201C49.9902 45.9201 50.1702 45.7401 50.1702 45.5101C50.1702 45.2901 50.0002 45.1101 49.7802 45.1001C49.9602 44.6601 50.3802 45.0101 50.3802 45.0101C51.0102 45.7001 50.2702 46.2701 50.2702 46.2701C49.2702 46.8701 48.6702 45.7701 48.6702 45.7701C49.5102 44.5101 49.6702 43.4301 49.6302 42.6701C50.1602 42.4801 50.7002 42.3201 51.2102 42.1001C52.5102 42.8201 53.6802 43.9901 53.6802 43.9901C55.7902 45.6201 59.5902 46.6201 61.9302 44.1901C62.1202 44.0001 62.2402 44.0701 62.2902 44.1201C62.2902 44.1201 62.3002 44.1201 62.3002 44.1301C62.4102 44.2601 62.5802 44.3501 62.7702 44.3501C62.9802 44.3501 63.1502 44.2401 63.2602 44.0901C63.3302 43.9601 63.3602 43.8501 63.3702 43.7501V43.7401C63.4402 43.4901 63.3102 43.3301 63.3102 43.3301ZM19.7502 42.6001C19.7502 42.6001 19.6302 42.7001 19.5102 42.5501C18.2802 41.0401 20.1602 39.3301 20.7502 40.3701C20.7502 40.3701 20.0402 40.4001 20.1202 40.8901C20.1202 40.8901 20.1302 41.4001 20.7702 41.3701C20.7702 41.3701 21.6502 41.2801 21.4402 40.2101C21.4402 40.2101 21.3302 39.7301 20.7802 39.5601C20.7802 39.5601 19.2302 39.1401 18.5702 40.4901C18.5702 40.4901 18.4402 40.8101 18.4202 41.3001C18.2402 41.1601 18.0402 41.0401 17.8202 41.0101C17.5302 40.7101 17.0202 38.2301 17.3502 36.9601C19.7202 36.4601 20.4502 34.5101 20.5602 33.9501C21.0402 34.1101 21.3202 34.6601 21.3402 34.8901C21.3802 35.2101 21.2302 35.5401 21.4202 35.8001C21.7002 36.1801 22.3102 36.5301 22.6902 36.7901C22.8202 36.8701 24.5502 38.2201 24.7802 38.2601C25.0302 38.3101 25.1802 38.1301 25.4002 38.1701C25.4802 38.1901 25.5302 38.2401 25.5902 38.2901C25.5902 38.2901 25.7102 38.4201 25.8902 38.5401C25.4302 38.8401 24.8402 39.2701 24.0502 39.9701C24.0502 39.9901 23.4502 40.7701 19.7502 42.6001ZM25.5702 44.2901C25.5702 44.2901 25.4202 44.9401 25.3002 45.0801C25.3002 45.0801 24.7802 44.1501 24.7402 42.9401C25.1302 43.0701 25.5202 43.2101 25.9202 43.3201C25.8002 43.6201 25.6702 43.9201 25.5702 44.2901ZM30.2102 46.5001C30.2102 46.5001 27.7402 47.4701 26.0402 45.7201C26.0402 45.7201 26.1602 44.6201 26.6202 43.4801C28.0002 43.8301 29.4302 44.1001 30.9102 44.2901C30.8102 45.2201 30.6102 46.4401 30.2102 46.5001ZM27.7702 41.6901C28.2602 41.2301 28.8902 40.9201 29.6802 40.9001C29.6802 40.9001 30.7802 40.8901 30.9802 42.2701C29.7802 42.1001 28.7002 41.9001 27.7702 41.6901ZM30.2302 40.1201C30.1002 40.1501 28.4702 40.2601 27.1302 41.5301C26.3902 41.3401 25.7202 41.1601 25.1902 40.9901C25.3002 40.7801 25.4102 40.5701 25.5702 40.3701C25.5702 40.3701 27.6702 37.8301 31.4302 39.2601C31.5102 39.2801 31.2702 39.8901 30.2302 40.1201ZM31.9602 42.4001C32.1202 40.9001 32.2302 39.6401 32.7702 39.6401C32.7702 39.6401 33.1602 39.6501 33.4302 40.0201C33.9002 40.6701 35.1702 41.4601 35.7502 42.6501C34.3902 42.6101 33.1102 42.5301 31.9602 42.4001ZM37.9102 42.6501C38.4902 41.4601 39.7602 40.6801 40.2402 40.0201C40.5102 39.6501 40.9002 39.6401 40.9002 39.6401C41.4402 39.6301 41.5602 40.9001 41.7102 42.4001C40.5502 42.5301 39.2702 42.6101 37.9102 42.6501ZM42.2302 39.2601C45.9902 37.8301 48.0902 40.3701 48.0902 40.3701C48.2502 40.5801 48.3602 40.7901 48.4702 41.0001C47.9502 41.1701 47.2802 41.3501 46.5302 41.5401C45.1802 40.2601 43.5602 40.1601 43.4302 40.1301C42.4002 39.8901 42.1502 39.2801 42.2302 39.2601ZM43.9802 40.9001C44.7802 40.9101 45.4102 41.2301 45.9002 41.6901C44.9702 41.9001 43.8802 42.1001 42.6802 42.2701C42.8802 40.8801 43.9802 40.9001 43.9802 40.9001ZM43.4502 46.5001C43.0602 46.4401 42.8502 45.2301 42.7502 44.2901C44.2302 44.1001 45.6702 43.8301 47.0402 43.4801C47.5002 44.6201 47.6202 45.7201 47.6202 45.7201C45.9202 47.4701 43.4502 46.5001 43.4502 46.5001ZM48.3602 45.0801C48.2402 44.9401 48.0902 44.2901 48.0902 44.2901C48.0002 43.9301 47.8702 43.6201 47.7402 43.3201C48.1402 43.2101 48.5302 43.0701 48.9202 42.9401C48.8702 44.1501 48.3602 45.0801 48.3602 45.0801Z" fill="white"></path>
                  </g>
                </g>
              </g>
            </g>
          </g>
        </g>
        <g id="Group_10">
          <path id="Vector_20" d="M85.9199 19.66L85.7299 11.81H85.6799C85.5099 12.8 85.3499 13.52 85.2299 14.05L83.9099 19.65H81.2399L79.9699 14.05C79.8499 13.51 79.6799 12.8 79.4999 11.81H79.4399L79.3199 19.66H77.6699L78.0299 10.37H81.1299C81.1299 10.37 82.1499 15.05 82.6899 18.05H82.7299C83.3499 15.06 84.5599 10.37 84.5599 10.37H87.5999L87.9599 19.66H85.9199Z" fill="white"></path>
          <path id="Vector_21" d="M90.07 19.66V14.21L89.29 14.05V12.92H91.86V19.66H90.07ZM90.01 10.17H91.83V11.81H90.01V10.17Z" fill="white"></path>
          <path id="Vector_22" d="M97.6797 19.66V15.65C97.6797 14.63 97.2897 14.15 96.4697 14.15C95.9997 14.15 95.5997 14.36 95.2897 14.56V19.65H93.4897V12.91H94.7297L95.0098 13.68C95.3998 13.23 96.1397 12.77 97.1397 12.77C98.8497 12.77 99.5197 13.77 99.5197 15.48V19.65H97.6797V19.66Z" fill="white"></path>
          <path id="Vector_23" d="M101.53 19.66V14.21L100.75 14.05V12.92H103.32V19.66H101.53ZM101.48 10.17H103.3V11.81H101.48V10.17Z" fill="white"></path>
          <path id="Vector_24" d="M106.51 14.69C106.51 15.74 109.43 15.42 109.43 17.62C109.43 18.84 108.52 19.79 106.77 19.79C105.96 19.79 105.2 19.56 104.75 19.29L105.12 18.04C105.44 18.26 106.1 18.51 106.72 18.51C107.31 18.51 107.71 18.18 107.71 17.77C107.71 16.56 104.83 16.96 104.83 14.66C104.83 13.67 105.59 12.77 107.4 12.77C108.1 12.77 108.83 12.91 109.3 13.1L109.05 14.41C108.6 14.2 108.02 14.07 107.43 14.07C106.82 14.08 106.51 14.31 106.51 14.69Z" fill="white"></path>
          <path id="Vector_25" d="M113.34 19.8C112.14 19.8 111.36 19.24 111.36 17.54V14.2H110.36V12.92H111.36V11.75L113.14 11.17V12.92H114.94V14.2H113.14V17.5C113.14 17.97 113.37 18.27 113.86 18.27C114.23 18.27 114.62 18.16 114.89 18.02L115.17 19.34C114.76 19.58 114.06 19.8 113.34 19.8Z" fill="white"></path>
          <path id="Vector_26" d="M117.51 16.77C117.51 17.84 118.12 18.44 119.24 18.44C119.93 18.44 120.63 18.18 121.22 17.88L121.56 19.15C121 19.45 120.07 19.81 119.01 19.81C116.93 19.81 115.69 18.52 115.69 16.29C115.69 14.21 116.69 12.79 118.86 12.79C120.9 12.79 121.7 14.3 121.7 16V16.78H117.51V16.77ZM118.78 14.1C117.89 14.1 117.51 14.91 117.51 15.71H119.97C119.97 14.85 119.71 14.1 118.78 14.1Z" fill="white"></path>
          <path id="Vector_27" d="M126.9 14.42C126.68 14.35 126.36 14.31 126.06 14.31C125.58 14.31 125.15 14.52 124.85 14.76V19.66H123.06V12.92H124.31L124.5 13.83H124.54C124.75 13.35 125.35 12.8 126.15 12.8C126.51 12.8 126.78 12.86 126.93 12.9L126.9 14.42Z" fill="white"></path>
          <path id="Vector_28" d="M128.53 19.66V14.21L127.75 14.05V12.92H130.32V19.66H128.53ZM128.48 10.17H130.3V11.81H128.48V10.17Z" fill="white"></path>
          <path id="Vector_29" d="M138.02 16.28C138.02 18.58 136.86 19.8 134.85 19.8C132.83 19.8 131.68 18.59 131.68 16.28C131.68 14.3 132.78 12.78 134.85 12.78C136.89 12.78 138.02 14.3 138.02 16.28ZM136.17 16.28C136.17 14.66 135.69 14.09 134.85 14.09C134.01 14.09 133.54 14.67 133.54 16.28C133.54 17.85 133.97 18.48 134.85 18.48C135.73 18.48 136.17 17.89 136.17 16.28Z" fill="white"></path>
          <path id="Vector_30" d="M146.76 13.44C146.65 13.05 146.59 12.71 146.59 12.2V10.16H148.38V19.66H146.92L146.71 18.92C146.43 19.33 145.79 19.8 144.92 19.8C143.39 19.8 142.17 18.7 142.17 16.29C142.17 14.06 143.44 12.78 145.07 12.78C145.81 12.78 146.38 13.03 146.76 13.44ZM146.59 14.46C146.31 14.29 145.89 14.13 145.37 14.13C144.52 14.13 143.98 14.71 143.98 16.28C143.98 17.89 144.49 18.5 145.34 18.5C145.79 18.5 146.25 18.28 146.59 17.92V14.46Z" fill="white"></path>
          <path id="Vector_31" d="M151.55 16.77C151.55 17.84 152.16 18.44 153.28 18.44C153.97 18.44 154.67 18.18 155.26 17.88L155.6 19.15C155.04 19.45 154.11 19.81 153.05 19.81C150.97 19.81 149.73 18.52 149.73 16.29C149.73 14.21 150.73 12.79 152.9 12.79C154.94 12.79 155.74 14.3 155.74 16V16.78H151.55V16.77ZM152.81 14.1C151.92 14.1 151.54 14.91 151.54 15.71H154C154.01 14.85 153.75 14.1 152.81 14.1Z" fill="white"></path>
          <path id="Vector_32" d="M77.7798 31.9001V24.1901H79.5598V31.8001C79.5598 32.3601 79.8998 32.4501 80.6498 32.4501V33.7201C80.6498 33.7201 80.1298 33.8301 79.6598 33.8301C78.2698 33.8301 77.7798 33.1001 77.7798 31.9001Z" fill="white"></path>
          <path id="Vector_33" d="M85.96 33.6901L85.71 32.8901C85.37 33.3601 84.69 33.8301 83.74 33.8301C82.39 33.8301 81.48 32.9601 81.48 31.6701C81.48 30.4201 82.4 29.6701 84.03 29.6701H85.45V29.3301C85.45 28.4601 84.95 28.1901 84.27 28.1901C83.47 28.1901 82.8 28.4001 82.25 28.6401L81.8 27.3601C82.47 27.0701 83.4 26.8101 84.46 26.8101C86.37 26.8101 87.2 27.6901 87.2 29.4101V33.6901H85.96ZM85.46 30.7501H84.34C83.6 30.7501 83.25 31.1101 83.25 31.6201C83.25 32.2401 83.58 32.6101 84.25 32.6101C84.68 32.6101 85.12 32.4201 85.45 32.1601V30.7501H85.46Z" fill="white"></path>
          <path id="Vector_34" d="M90.3098 28.72C90.3098 29.77 93.2298 29.45 93.2298 31.65C93.2298 32.87 92.3198 33.82 90.5698 33.82C89.7598 33.82 88.9998 33.59 88.5498 33.32L88.9198 32.07C89.2398 32.29 89.8998 32.5401 90.5198 32.5401C91.1098 32.5401 91.5098 32.21 91.5098 31.8C91.5098 30.59 88.6298 30.9901 88.6298 28.6901C88.6298 27.7001 89.3898 26.8 91.1998 26.8C91.8998 26.8 92.6298 26.94 93.0998 27.13L92.8498 28.4401C92.3998 28.2301 91.8198 28.1 91.2298 28.1C90.6198 28.1 90.3098 28.34 90.3098 28.72Z" fill="white"></path>
          <path id="Vector_35" d="M101.49 33.83C98.8797 33.83 97.4697 32.1 97.4697 29C97.4697 26.11 98.8597 24.27 101.49 24.27C102.76 24.27 103.9 24.55 104.66 25.05L103.97 26.51C103.49 26.14 102.65 25.86 101.69 25.86C100.15 25.86 99.3797 26.95 99.3797 28.98C99.3797 31.13 100.15 32.23 101.66 32.23C102.57 32.23 103.48 31.84 104.11 31.38L104.69 32.84C103.76 33.47 102.71 33.83 101.49 33.83Z" fill="white"></path>
          <path id="Vector_36" d="M110.41 33.6901L110.13 32.8601C109.81 33.2701 109.1 33.8201 108.02 33.8201C106.34 33.8201 105.57 32.8801 105.57 31.0301V26.9401H107.36V31.0401C107.36 32.0701 107.73 32.4401 108.54 32.4401C109.01 32.4401 109.43 32.2601 109.75 32.0401V26.9301H111.58V33.6701H110.41V33.6901Z" fill="white"></path>
          <path id="Vector_37" d="M113.11 31.9001V24.1901H114.89V31.8001C114.89 32.3601 115.23 32.4501 115.98 32.4501V33.7201C115.98 33.7201 115.46 33.8301 114.99 33.8301C113.6 33.8301 113.11 33.1001 113.11 31.9001Z" fill="white"></path>
          <path id="Vector_38" d="M119.63 33.8301C118.43 33.8301 117.65 33.2701 117.65 31.5701V28.2301H116.65V26.9501H117.65V25.7801L119.43 25.2001V26.9501H121.23V28.2301H119.43V31.5301C119.43 32.0001 119.66 32.3001 120.15 32.3001C120.52 32.3001 120.91 32.1901 121.18 32.0501L121.46 33.3701C121.05 33.6101 120.34 33.8301 119.63 33.8301Z" fill="white"></path>
          <path id="Vector_39" d="M127.31 33.6901L127.03 32.8601C126.71 33.2701 126 33.8201 124.92 33.8201C123.24 33.8201 122.47 32.8801 122.47 31.0301V26.9401H124.26V31.0401C124.26 32.0701 124.63 32.4401 125.44 32.4401C125.91 32.4401 126.33 32.2601 126.65 32.0401V26.9301H128.48V33.6701H127.31V33.6901Z" fill="white"></path>
          <path id="Vector_40" d="M133.82 28.4501C133.6 28.3801 133.28 28.3401 132.98 28.3401C132.5 28.3401 132.07 28.5501 131.77 28.7901V33.6901H129.98V26.9501H131.23L131.42 27.8601H131.46C131.67 27.3801 132.27 26.8301 133.07 26.8301C133.43 26.8301 133.7 26.8901 133.85 26.9301L133.82 28.4501Z" fill="white"></path>
          <path id="Vector_41" d="M138.92 33.6901L138.67 32.8901C138.33 33.3601 137.65 33.8301 136.7 33.8301C135.35 33.8301 134.44 32.9601 134.44 31.6701C134.44 30.4201 135.36 29.6701 136.99 29.6701H138.41V29.3301C138.41 28.4601 137.91 28.1901 137.23 28.1901C136.43 28.1901 135.76 28.4001 135.21 28.6401L134.76 27.3601C135.43 27.0701 136.36 26.8101 137.42 26.8101C139.33 26.8101 140.16 27.6901 140.16 29.4101V33.6901H138.92ZM138.42 30.7501H137.31C136.57 30.7501 136.22 31.1101 136.22 31.6201C136.22 32.2401 136.55 32.6101 137.22 32.6101C137.65 32.6101 138.09 32.4201 138.42 32.1601V30.7501Z" fill="white"></path>
          <path id="Vector_42" d="M143.27 28.72C143.27 29.77 146.19 29.45 146.19 31.65C146.19 32.87 145.28 33.82 143.53 33.82C142.72 33.82 141.96 33.59 141.51 33.32L141.88 32.07C142.2 32.29 142.86 32.5401 143.48 32.5401C144.07 32.5401 144.47 32.21 144.47 31.8C144.47 30.59 141.59 30.9901 141.59 28.6901C141.59 27.7001 142.35 26.8 144.16 26.8C144.86 26.8 145.59 26.94 146.06 27.13L145.81 28.4401C145.36 28.2301 144.78 28.1 144.19 28.1C143.58 28.1 143.27 28.34 143.27 28.72Z" fill="white"></path>
          <path id="Vector_43" d="M147.44 31.75H149.26V33.8C149.26 34.96 148.6 35.44 147.44 35.56V34.62C147.69 34.57 147.87 34.33 147.87 33.68L147.44 33.47V31.75Z" fill="white"></path>
          <path id="Vector_44" d="M77.7798 45.9301V38.2201H79.5598V45.8301C79.5598 46.3901 79.8998 46.4801 80.6498 46.4801V47.7501C80.6498 47.7501 80.1298 47.8601 79.6598 47.8601C78.2698 47.8601 77.7798 47.1301 77.7798 45.9301Z" fill="white"></path>
          <path id="Vector_45" d="M85.96 47.7201L85.71 46.9201C85.37 47.3901 84.69 47.8601 83.74 47.8601C82.39 47.8601 81.48 46.9901 81.48 45.7001C81.48 44.4501 82.4 43.7001 84.03 43.7001H85.45V43.3601C85.45 42.4901 84.95 42.2201 84.27 42.2201C83.47 42.2201 82.8 42.4301 82.25 42.6701L81.8 41.3901C82.47 41.1001 83.4 40.8401 84.46 40.8401C86.37 40.8401 87.2 41.7201 87.2 43.4401V47.7201H85.96ZM85.46 44.7701H84.34C83.6 44.7701 83.25 45.1301 83.25 45.6401C83.25 46.2601 83.58 46.6301 84.25 46.6301C84.68 46.6301 85.12 46.4401 85.45 46.1801V44.7701H85.46Z" fill="white"></path>
          <path id="Vector_46" d="M90.3098 42.7501C90.3098 43.8001 93.2298 43.4801 93.2298 45.6801C93.2298 46.9001 92.3198 47.8501 90.5698 47.8501C89.7598 47.8501 88.9998 47.6201 88.5498 47.3501L88.9198 46.1001C89.2398 46.3201 89.8998 46.5701 90.5198 46.5701C91.1098 46.5701 91.5098 46.2401 91.5098 45.8301C91.5098 44.6201 88.6298 45.0201 88.6298 42.7201C88.6298 41.7301 89.3898 40.8301 91.1998 40.8301C91.8998 40.8301 92.6298 40.9701 93.0998 41.1601L92.8498 42.4701C92.3998 42.2601 91.8198 42.1301 91.2298 42.1301C90.6198 42.1301 90.3098 42.3701 90.3098 42.7501Z" fill="white"></path>
          <path id="Vector_47" d="M98.81 47.7201H97.04L99.56 38.4301H102.56L105 47.7201H102.98L102.5 45.6301H99.31L98.81 47.7201ZM100.65 40.0101L99.63 44.1701H102.16L101.21 40.0101H100.65Z" fill="white"></path>
          <path id="Vector_48" d="M109.82 42.48C109.6 42.41 109.28 42.37 108.98 42.37C108.5 42.37 108.07 42.58 107.77 42.82V47.72H105.98V40.98H107.23L107.42 41.89H107.46C107.67 41.41 108.27 40.86 109.07 40.86C109.43 40.86 109.7 40.92 109.85 40.96L109.82 42.48Z" fill="white"></path>
          <path id="Vector_49" d="M113.39 47.86C112.19 47.86 111.41 47.3 111.41 45.6V42.26H110.41V40.98H111.41V39.81L113.19 39.23V40.98H114.99V42.26H113.19V45.56C113.19 46.03 113.42 46.33 113.91 46.33C114.28 46.33 114.67 46.22 114.94 46.08L115.22 47.4C114.81 47.64 114.11 47.86 113.39 47.86Z" fill="white"></path>
          <path id="Vector_50" d="M117.56 44.83C117.56 45.9 118.17 46.5 119.29 46.5C119.98 46.5 120.68 46.24 121.27 45.94L121.61 47.21C121.05 47.51 120.12 47.87 119.06 47.87C116.98 47.87 115.74 46.58 115.74 44.35C115.74 42.27 116.74 40.85 118.91 40.85C120.95 40.85 121.75 42.36 121.75 44.06V44.84H117.56V44.83ZM118.83 42.16C117.94 42.16 117.56 42.97 117.56 43.77H120.02C120.03 42.9 119.77 42.16 118.83 42.16Z" fill="white"></path>
          <path id="Vector_51" d="M124.68 42.7501C124.68 43.8001 127.6 43.4801 127.6 45.6801C127.6 46.9001 126.69 47.8501 124.94 47.8501C124.13 47.8501 123.37 47.6201 122.92 47.3501L123.29 46.1001C123.61 46.3201 124.27 46.5701 124.89 46.5701C125.48 46.5701 125.88 46.2401 125.88 45.8301C125.88 44.6201 123 45.0201 123 42.7201C123 41.7301 123.76 40.8301 125.57 40.8301C126.27 40.8301 127 40.9701 127.47 41.1601L127.22 42.4701C126.77 42.2601 126.19 42.1301 125.6 42.1301C124.98 42.1301 124.68 42.3701 124.68 42.7501Z" fill="white"></path>
          <path id="Vector_52" d="M134.62 47.57L133.37 47.79L131.36 40.98H133.38L134.81 46.64H134.84L136.29 40.98H138.08L136 47.89C135.42 49.83 134.44 50.55 133.05 50.55C132.29 50.55 131.44 50.12 131.15 49.88L131.71 48.65H131.88C131.94 48.69 132.5 49.13 133.13 49.13C133.85 49.13 134.31 48.63 134.56 47.77L134.62 47.57Z" fill="white"></path>
          <path id="Vector_53" d="M143.6 44.83C143.6 45.9 144.21 46.5 145.33 46.5C146.02 46.5 146.72 46.24 147.31 45.94L147.65 47.21C147.09 47.51 146.16 47.87 145.1 47.87C143.02 47.87 141.78 46.58 141.78 44.35C141.78 42.27 142.78 40.85 144.95 40.85C146.99 40.85 147.79 42.36 147.79 44.06V44.84H143.6V44.83ZM144.87 42.16C143.98 42.16 143.6 42.97 143.6 43.77H146.06C146.07 42.9 145.81 42.16 144.87 42.16Z" fill="white"></path>
          <path id="Vector_54" d="M149.18 45.9301V38.2201H150.96V45.8301C150.96 46.3901 151.3 46.4801 152.05 46.4801V47.7501C152.05 47.7501 151.53 47.8601 151.06 47.8601C149.67 47.8601 149.18 47.1301 149.18 45.9301Z" fill="white"></path>
          <path id="Vector_55" d="M80.6198 58.5101H79.5998V61.7401H77.7998V52.4501H80.6198C82.5198 52.4501 84.1598 53.3601 84.1598 55.3501C84.1598 57.1501 82.8098 58.5101 80.6198 58.5101ZM80.5798 53.9901H79.5998V57.1001H80.5798C81.6398 57.1001 82.2498 56.4501 82.2498 55.4301C82.2498 54.4801 81.6198 53.9901 80.5798 53.9901Z" fill="white"></path>
          <path id="Vector_56" d="M89.0498 61.75L88.7998 60.95C88.4598 61.42 87.7798 61.89 86.8298 61.89C85.4798 61.89 84.5698 61.02 84.5698 59.73C84.5698 58.48 85.4898 57.73 87.1198 57.73H88.5398V57.39C88.5398 56.52 88.0398 56.25 87.3598 56.25C86.5598 56.25 85.8898 56.46 85.3398 56.7L84.8898 55.42C85.5598 55.13 86.4898 54.87 87.5498 54.87C89.4598 54.87 90.2898 55.75 90.2898 57.47V61.75H89.0498ZM88.5398 58.8H87.4298C86.6898 58.8 86.3398 59.16 86.3398 59.67C86.3398 60.29 86.6698 60.66 87.3398 60.66C87.7698 60.66 88.2098 60.47 88.5398 60.21V58.8Z" fill="white"></path>
          <path id="Vector_57" d="M94.3301 61.89C93.1301 61.89 92.3501 61.33 92.3501 59.63V56.29H91.3501V55H92.3501V53.83L94.1301 53.25V55H95.9301V56.28H94.1301V59.58C94.1301 60.05 94.3601 60.35 94.8501 60.35C95.2201 60.35 95.6101 60.24 95.8801 60.1L96.1601 61.42C95.7501 61.67 95.0501 61.89 94.3301 61.89Z" fill="white"></path>
          <path id="Vector_58" d="M101.13 56.5C100.91 56.43 100.59 56.39 100.29 56.39C99.81 56.39 99.38 56.6 99.08 56.84V61.74H97.29V55H98.54L98.73 55.91H98.77C98.98 55.43 99.58 54.88 100.38 54.88C100.74 54.88 101.01 54.94 101.16 54.98L101.13 56.5Z" fill="white"></path>
          <path id="Vector_59" d="M102.77 61.75V56.3L101.99 56.14V55H104.56V61.74H102.77V61.75ZM102.71 52.25H104.53V53.89H102.71V52.25Z" fill="white"></path>
          <path id="Vector_60" d="M112.16 57.58V61.75H110.34V57.74C110.34 56.72 109.97 56.24 109.13 56.24C108.66 56.24 108.3 56.45 107.99 56.65V61.74H106.19V55H107.4L107.7 55.78C108.09 55.31 108.75 54.86 109.7 54.86C110.8 54.86 111.46 55.19 111.81 55.81C112.21 55.33 112.91 54.86 113.85 54.86C115.78 54.86 116.34 55.86 116.34 57.57V61.74H114.51V57.73C114.51 56.71 114.08 56.23 113.24 56.23C112.8 56.23 112.4 56.44 112.1 56.64C112.14 56.93 112.16 57.25 112.16 57.58Z" fill="white"></path>
          <path id="Vector_61" d="M123.84 58.36C123.84 60.66 122.68 61.88 120.67 61.88C118.65 61.88 117.5 60.67 117.5 58.36C117.5 56.38 118.6 54.86 120.67 54.86C122.71 54.87 123.84 56.38 123.84 58.36ZM122 58.36C122 56.74 121.52 56.17 120.68 56.17C119.84 56.17 119.37 56.75 119.37 58.36C119.37 59.93 119.8 60.56 120.68 60.56C121.56 60.56 122 59.97 122 58.36Z" fill="white"></path>
          <path id="Vector_62" d="M129.37 61.75V57.74C129.37 56.72 128.98 56.24 128.16 56.24C127.69 56.24 127.29 56.45 126.98 56.65V61.74H125.18V55H126.42L126.7 55.77C127.09 55.32 127.83 54.86 128.83 54.86C130.54 54.86 131.21 55.86 131.21 57.57V61.74H129.37V61.75Z" fill="white"></path>
          <path id="Vector_63" d="M133.23 61.75V56.3L132.45 56.14V55H135.02V61.74H133.23V61.75ZM133.17 52.25H134.99V53.89H133.17V52.25Z" fill="white"></path>
          <path id="Vector_64" d="M142.71 58.36C142.71 60.66 141.55 61.88 139.54 61.88C137.52 61.88 136.37 60.67 136.37 58.36C136.37 56.38 137.47 54.86 139.54 54.86C141.58 54.87 142.71 56.38 142.71 58.36ZM140.87 58.36C140.87 56.74 140.39 56.17 139.55 56.17C138.71 56.17 138.24 56.75 138.24 58.36C138.24 59.93 138.67 60.56 139.55 60.56C140.43 60.56 140.87 59.97 140.87 58.36Z" fill="white"></path>
        </g>
      </g>
    </g>
  </g>
</svg>
